<svg width="700" height="980" viewBox="0 0 700 980" fill="none" xmlns="http://www.w3.org/2000/svg">
  <rect width="700" height="980" fill="#09090A"/>
  <rect x="112" y="80" width="476" height="820" rx="54" fill="#111216" stroke="#FFFFFF" stroke-opacity="0.1"/>
  <rect x="170" y="142" width="360" height="696" rx="34" fill="#060708"/>
  <rect x="210" y="190" width="168" height="18" rx="9" fill="white"/>
  <rect x="210" y="220" width="132" height="10" rx="5" fill="#676B74"/>
  <rect x="210" y="270" width="280" height="146" rx="24" fill="#14171C"/>
  <path d="M240 378L290 332L338 348L402 304L460 334" stroke="#6F92FF" stroke-width="7" stroke-linecap="round" stroke-linejoin="round"/>
  <rect x="210" y="454" width="280" height="88" rx="20" fill="#17191F"/>
  <rect x="210" y="566" width="280" height="88" rx="20" fill="#17191F"/>
  <rect x="210" y="678" width="180" height="16" rx="8" fill="white"/>
  <rect x="210" y="708" width="126" height="10" rx="5" fill="#676B74"/>
  <circle cx="350" cy="119" r="10" fill="#2B2D31"/>
</svg>
